<svg width="21" height="20" viewBox="0 0 21 20" fill="none" xmlns="http://www.w3.org/2000/svg">
<path fill-rule="evenodd" clip-rule="evenodd" d="M4.3767 8.33317C4.23959 8.86587 4.16667 9.42434 4.16667 9.99984C4.16667 10.5753 4.23959 11.1338 4.3767 11.6665H7.58763C7.53143 11.1438 7.5 10.5883 7.5 9.99984C7.5 9.41133 7.53143 8.8559 7.58763 8.33317H4.3767ZM5.05855 6.6665H7.8679C8.12207 5.57242 8.4783 4.6707 8.83969 3.95613C8.90697 3.8231 8.97437 3.69667 9.04125 3.57679C7.34503 4.04905 5.92123 5.17518 5.05855 6.6665ZM10.8333 3.83718C10.6772 4.07097 10.5026 4.36097 10.327 4.70832C10.064 5.22834 9.7971 5.87942 9.58572 6.6665H12.0809C11.8696 5.87942 11.6027 5.22834 11.3397 4.70832C11.164 4.36097 10.9895 4.07097 10.8333 3.83718ZM12.4015 8.33317H9.26517C9.20254 8.84853 9.16667 9.40383 9.16667 9.99984C9.16667 10.5958 9.20254 11.1511 9.26517 11.6665H12.4015C12.4641 11.1511 12.5 10.5958 12.5 9.99984C12.5 9.40383 12.4641 8.84853 12.4015 8.33317ZM14.079 11.6665C14.1352 11.1438 14.1667 10.5883 14.1667 9.99984C14.1667 9.41133 14.1352 8.8559 14.079 8.33317H17.29C17.4271 8.86587 17.5 9.42434 17.5 9.99984C17.5 10.5753 17.4271 11.1338 17.29 11.6665H14.079ZM12.0809 13.3332H9.58572C9.7971 14.1203 10.064 14.7713 10.327 15.2914C10.5026 15.6387 10.6772 15.9287 10.8333 16.1625C10.9895 15.9287 11.164 15.6387 11.3397 15.2914C11.6027 14.7713 11.8696 14.1203 12.0809 13.3332ZM9.04126 16.4229C8.97438 16.303 8.90697 16.1766 8.83969 16.0435C8.4783 15.329 8.12207 14.4272 7.8679 13.3332H5.05855C5.92123 14.8245 7.34503 15.9506 9.04126 16.4229ZM12.6254 16.4229C12.6923 16.303 12.7597 16.1766 12.827 16.0435C13.1884 15.329 13.5446 14.4272 13.7988 13.3332H16.6081C15.7454 14.8245 14.3216 15.9506 12.6254 16.4229ZM16.6081 6.6665H13.7988C13.5446 5.57242 13.1884 4.6707 12.827 3.95613C12.7597 3.8231 12.6923 3.69667 12.6254 3.57679C14.3216 4.04905 15.7454 5.17518 16.6081 6.6665ZM2.5 9.99984C2.5 5.39746 6.23096 1.6665 10.8333 1.6665C15.4357 1.6665 19.1667 5.39746 19.1667 9.99984C19.1667 14.6022 15.4357 18.3332 10.8333 18.3332C6.23096 18.3332 2.5 14.6022 2.5 9.99984Z" fill="white"/>
</svg>
