<svg width="21" height="20" viewBox="0 0 21 20" fill="none" xmlns="http://www.w3.org/2000/svg">
<path fill-rule="evenodd" clip-rule="evenodd" d="M4.64826 1.66651C4.65842 1.66651 4.66862 1.66651 4.67884 1.66651L6.51776 1.66651C6.84746 1.66649 7.14414 1.66647 7.39086 1.68696C7.65515 1.70891 7.9358 1.75861 8.21004 1.90106C8.59055 2.09872 8.9008 2.40897 9.09845 2.78948C9.24091 3.06371 9.29061 3.34437 9.31256 3.60866C9.33305 3.85537 9.33303 4.15205 9.33301 4.48174V8.01794C9.33303 8.34763 9.33305 8.64431 9.31256 8.89102C9.29061 9.15531 9.24091 9.43597 9.09845 9.7102C8.9008 10.0907 8.59055 10.401 8.21004 10.5986C7.9358 10.7411 7.65515 10.7908 7.39086 10.8127C7.14415 10.8332 6.84747 10.8332 6.51778 10.8332H4.64824C4.31855 10.8332 4.02187 10.8332 3.77516 10.8127C3.51087 10.7908 3.23022 10.7411 2.95598 10.5986C2.57547 10.401 2.26522 10.0907 2.06757 9.7102C1.92511 9.43597 1.87541 9.15531 1.85346 8.89102C1.83297 8.64431 1.83299 8.34762 1.83301 8.01793L1.83301 4.51234C1.83301 4.50211 1.83301 4.49192 1.83301 4.48175C1.83299 4.15205 1.83297 3.85537 1.85346 3.60866C1.87541 3.34437 1.92511 3.06371 2.06757 2.78948C2.26522 2.40897 2.57547 2.09872 2.95598 1.90106C3.23022 1.75861 3.51087 1.70891 3.77516 1.68696C4.02188 1.66647 4.31856 1.66649 4.64826 1.66651ZM3.73094 3.37731C3.72656 3.3789 3.72468 3.37987 3.72427 3.38008C3.64817 3.41962 3.58612 3.48167 3.54659 3.55777C3.54637 3.55818 3.54541 3.56005 3.54382 3.56443C3.54216 3.569 3.5394 3.57744 3.53611 3.59118C3.52919 3.62006 3.52096 3.66771 3.51441 3.7466C3.50035 3.91594 3.49968 4.14242 3.49968 4.51234V7.98734C3.49968 8.35726 3.50035 8.58374 3.51441 8.75308C3.52096 8.83196 3.52919 8.87962 3.53611 8.9085C3.5394 8.92224 3.54216 8.93068 3.54382 8.93525C3.54541 8.93963 3.54637 8.9415 3.54659 8.94191C3.58612 9.01801 3.64817 9.08006 3.72427 9.1196C3.72468 9.11981 3.72656 9.12078 3.73094 9.12237C3.7355 9.12403 3.74394 9.12678 3.75768 9.13008C3.78657 9.137 3.83422 9.14522 3.9131 9.15177C4.08244 9.16584 4.30892 9.16651 4.67884 9.16651H6.48718C6.8571 9.16651 7.08358 9.16584 7.25292 9.15177C7.3318 9.14522 7.37945 9.137 7.40834 9.13008C7.42208 9.12678 7.43052 9.12403 7.43508 9.12237C7.43946 9.12078 7.44134 9.11981 7.44175 9.1196C7.51785 9.08006 7.5799 9.01801 7.61943 8.94191C7.61965 8.9415 7.62061 8.93963 7.6222 8.93525C7.62386 8.93068 7.62662 8.92224 7.62991 8.9085C7.63684 8.87962 7.64506 8.83197 7.65161 8.75308C7.66567 8.58374 7.66634 8.35726 7.66634 7.98734V4.51234C7.66634 4.14242 7.66567 3.91594 7.65161 3.7466C7.64506 3.66771 7.63684 3.62006 7.62991 3.59118C7.62662 3.57744 7.62386 3.569 7.6222 3.56443C7.62061 3.56005 7.61965 3.55818 7.61943 3.55777C7.5799 3.48167 7.51785 3.41962 7.44175 3.38008C7.44134 3.37987 7.43946 3.3789 7.43508 3.37731C7.43052 3.37565 7.42208 3.37289 7.40834 3.3696C7.37945 3.36268 7.3318 3.35446 7.25292 3.34791C7.08358 3.33384 6.8571 3.33317 6.48718 3.33317H4.67884C4.30892 3.33317 4.08244 3.33384 3.9131 3.34791C3.83422 3.35446 3.78657 3.36268 3.75768 3.3696C3.74394 3.37289 3.7355 3.37565 3.73094 3.37731ZM13.8149 1.66651H15.6844C16.0141 1.66649 16.3108 1.66647 16.5575 1.68696C16.8218 1.70891 17.1025 1.75861 17.3767 1.90106C17.7572 2.09872 18.0675 2.40897 18.2651 2.78948C18.4076 3.06371 18.4573 3.34437 18.4792 3.60866C18.4997 3.85538 18.4997 4.15207 18.4997 4.48177V4.68457C18.4997 5.01428 18.4997 5.31097 18.4792 5.55769C18.4573 5.82198 18.4076 6.10263 18.2651 6.37687C18.0675 6.75738 17.7572 7.06763 17.3767 7.26528C17.1025 7.40774 16.8218 7.45744 16.5575 7.47939C16.3108 7.49988 16.0141 7.49986 15.6844 7.49984H13.8149C13.4852 7.49986 13.1885 7.49988 12.9418 7.47939C12.6775 7.45744 12.3969 7.40774 12.1226 7.26528C11.7421 7.06763 11.4319 6.75738 11.2342 6.37687C11.0918 6.10263 11.0421 5.82198 11.0201 5.55768C10.9996 5.31097 10.9997 5.0143 10.9997 4.68461V4.48174C10.9997 4.15205 10.9996 3.85537 11.0201 3.60866C11.0421 3.34437 11.0918 3.06371 11.2342 2.78948C11.4319 2.40897 11.7421 2.09872 12.1226 1.90106C12.3969 1.75861 12.6775 1.70891 12.9418 1.68696C13.1885 1.66647 13.4852 1.66649 13.8149 1.66651ZM12.8976 3.37731C12.8932 3.3789 12.8914 3.37987 12.8909 3.38008C12.8148 3.41962 12.7528 3.48167 12.7133 3.55777C12.713 3.55818 12.7121 3.56005 12.7105 3.56443C12.7088 3.569 12.7061 3.57744 12.7028 3.59118C12.6959 3.62006 12.6876 3.66771 12.6811 3.74659C12.667 3.91594 12.6663 4.14242 12.6663 4.51234V4.65401C12.6663 5.02393 12.667 5.25041 12.6811 5.41975C12.6876 5.49863 12.6959 5.54628 12.7028 5.57517C12.7061 5.58891 12.7088 5.59735 12.7105 5.60191C12.7121 5.60629 12.713 5.60817 12.7133 5.60858C12.7528 5.68468 12.8148 5.74673 12.8909 5.78626C12.8914 5.78648 12.8932 5.78744 12.8976 5.78903C12.9022 5.79069 12.9106 5.79345 12.9243 5.79674C12.9532 5.80366 13.0009 5.81189 13.0798 5.81844C13.2491 5.8325 13.4756 5.83317 13.8455 5.83317H15.6538C16.0238 5.83317 16.2502 5.8325 16.4196 5.81844C16.4985 5.81189 16.5461 5.80366 16.575 5.79674C16.5887 5.79345 16.5972 5.79069 16.6017 5.78903C16.6061 5.78744 16.608 5.78648 16.6084 5.78626C16.6845 5.74673 16.7466 5.68468 16.7861 5.60858C16.7863 5.60816 16.7873 5.60629 16.7889 5.60191C16.7905 5.59735 16.7933 5.58891 16.7966 5.57517C16.8035 5.54628 16.8117 5.49863 16.8183 5.41975C16.8323 5.25041 16.833 5.02393 16.833 4.65401V4.51234C16.833 4.14242 16.8323 3.91594 16.8183 3.7466C16.8117 3.66771 16.8035 3.62006 16.7966 3.59118C16.7933 3.57744 16.7905 3.569 16.7889 3.56443C16.7873 3.56005 16.7863 3.55818 16.7861 3.55777C16.7466 3.48166 16.6845 3.41962 16.6084 3.38008C16.608 3.37987 16.6061 3.3789 16.6017 3.37731C16.5972 3.37565 16.5887 3.37289 16.575 3.3696C16.5461 3.36268 16.4985 3.35446 16.4196 3.34791C16.2502 3.33384 16.0238 3.33317 15.6538 3.33317H13.8455C13.4756 3.33317 13.2491 3.33384 13.0798 3.34791C13.0009 3.35446 12.9532 3.36268 12.9243 3.3696C12.9106 3.37289 12.9022 3.37565 12.8976 3.37731ZM13.8149 9.16651H15.6844C16.0141 9.16649 16.3108 9.16647 16.5575 9.18696C16.8218 9.2089 17.1025 9.25861 17.3767 9.40106C17.7572 9.59872 18.0675 9.90897 18.2651 10.2895C18.4076 10.5637 18.4573 10.8444 18.4792 11.1087C18.4997 11.3554 18.4997 11.6521 18.4997 11.9818V15.5179C18.4997 15.8476 18.4997 16.1443 18.4792 16.391C18.4573 16.6553 18.4076 16.936 18.2651 17.2102C18.0675 17.5907 17.7572 17.901 17.3767 18.0986C17.1025 18.2411 16.8218 18.2908 16.5575 18.3127C16.3108 18.3332 16.0141 18.3332 15.6844 18.3332H13.8149C13.4852 18.3332 13.1885 18.3332 12.9418 18.3127C12.6775 18.2908 12.3969 18.2411 12.1226 18.0986C11.7421 17.901 11.4319 17.5907 11.2342 17.2102C11.0918 16.936 11.0421 16.6553 11.0201 16.391C10.9996 16.1443 10.9997 15.8476 10.9997 15.5179V11.9817C10.9997 11.652 10.9996 11.3554 11.0201 11.1087C11.0421 10.8444 11.0918 10.5637 11.2342 10.2895C11.4319 9.90897 11.7421 9.59872 12.1226 9.40106C12.3969 9.25861 12.6775 9.2089 12.9418 9.18696C13.1885 9.16647 13.4852 9.16649 13.8149 9.16651ZM12.8976 10.8773C12.8932 10.8789 12.8914 10.8799 12.8909 10.8801C12.8148 10.9196 12.7528 10.9817 12.7133 11.0578C12.713 11.0582 12.7121 11.0601 12.7105 11.0644C12.7088 11.069 12.7061 11.0774 12.7028 11.0912C12.6959 11.1201 12.6876 11.1677 12.6811 11.2466C12.667 11.4159 12.6663 11.6424 12.6663 12.0123V15.4873C12.6663 15.8573 12.667 16.0837 12.6811 16.2531C12.6876 16.332 12.6959 16.3796 12.7028 16.4085C12.7061 16.4222 12.7088 16.4307 12.7105 16.4352C12.7121 16.4396 12.713 16.4415 12.7133 16.4419C12.7528 16.518 12.8148 16.5801 12.8909 16.6196C12.8914 16.6198 12.8932 16.6208 12.8976 16.6224C12.9022 16.624 12.9106 16.6268 12.9243 16.6301C12.9532 16.637 13.0009 16.6452 13.0798 16.6518C13.2491 16.6658 13.4756 16.6665 13.8455 16.6665H15.6538C16.0238 16.6665 16.2502 16.6658 16.4196 16.6518C16.4985 16.6452 16.5461 16.637 16.575 16.6301C16.5887 16.6268 16.5972 16.624 16.6017 16.6224C16.6061 16.6208 16.608 16.6198 16.6084 16.6196C16.6845 16.5801 16.7466 16.518 16.7861 16.4419C16.7863 16.4415 16.7873 16.4396 16.7889 16.4352C16.7905 16.4307 16.7933 16.4222 16.7966 16.4085C16.8035 16.3796 16.8117 16.332 16.8183 16.2531C16.8323 16.0837 16.833 15.8573 16.833 15.4873V12.0123C16.833 11.6424 16.8323 11.4159 16.8183 11.2466C16.8117 11.1677 16.8035 11.1201 16.7966 11.0912C16.7933 11.0774 16.7905 11.069 16.7889 11.0644C16.7873 11.0601 16.7863 11.0582 16.7861 11.0578C16.7466 10.9817 16.6845 10.9196 16.6084 10.8801C16.608 10.8799 16.6061 10.8789 16.6017 10.8773C16.5972 10.8757 16.5887 10.8729 16.575 10.8696C16.5461 10.8627 16.4985 10.8545 16.4196 10.8479C16.2502 10.8338 16.0238 10.8332 15.6538 10.8332H13.8455C13.4756 10.8332 13.2491 10.8338 13.0798 10.8479C13.0009 10.8545 12.9532 10.8627 12.9243 10.8696C12.9106 10.8729 12.9022 10.8757 12.8976 10.8773ZM4.64824 12.4998H6.51778C6.84747 12.4998 7.14415 12.4998 7.39086 12.5203C7.65515 12.5422 7.9358 12.5919 8.21004 12.7344C8.59055 12.9321 8.9008 13.2423 9.09845 13.6228C9.24091 13.897 9.29061 14.1777 9.31256 14.442C9.33305 14.6887 9.33303 14.9854 9.33301 15.3151V15.5179C9.33303 15.8476 9.33305 16.1443 9.31256 16.391C9.29061 16.6553 9.24091 16.936 9.09845 17.2102C8.9008 17.5907 8.59055 17.901 8.21004 18.0986C7.93581 18.2411 7.65515 18.2908 7.39086 18.3127C7.14414 18.3332 6.84745 18.3332 6.51774 18.3332H4.64828C4.31857 18.3332 4.02188 18.3332 3.77516 18.3127C3.51087 18.2908 3.23021 18.2411 2.95598 18.0986C2.57547 17.901 2.26522 17.5907 2.06757 17.2102C1.92511 16.936 1.87541 16.6553 1.85346 16.391C1.83297 16.1443 1.83299 15.8476 1.83301 15.5179V15.3151C1.83299 14.9854 1.83297 14.6887 1.85346 14.442C1.87541 14.1777 1.92511 13.897 2.06757 13.6228C2.26522 13.2423 2.57547 12.9321 2.95598 12.7344C3.23022 12.5919 3.51087 12.5422 3.77516 12.5203C4.02187 12.4998 4.31855 12.4998 4.64824 12.4998ZM3.73094 14.2106C3.72656 14.2122 3.72468 14.2132 3.72427 14.2134C3.64817 14.2529 3.58612 14.315 3.54659 14.3911C3.54637 14.3915 3.54541 14.3934 3.54382 14.3978C3.54216 14.4023 3.5394 14.4108 3.53611 14.4245C3.52919 14.4534 3.52096 14.501 3.51441 14.5799C3.50035 14.7493 3.49968 14.9758 3.49968 15.3457V15.4873C3.49968 15.8573 3.50035 16.0837 3.51441 16.2531C3.52096 16.332 3.52919 16.3796 3.53611 16.4085C3.5394 16.4222 3.54216 16.4307 3.54382 16.4352C3.54541 16.4396 3.54637 16.4415 3.54659 16.4419C3.58612 16.518 3.64817 16.5801 3.72427 16.6196C3.72468 16.6198 3.72656 16.6208 3.73094 16.6224C3.7355 16.624 3.74394 16.6268 3.75768 16.6301C3.78657 16.637 3.83422 16.6452 3.9131 16.6518C4.08244 16.6658 4.30892 16.6665 4.67884 16.6665H6.48718C6.8571 16.6665 7.08358 16.6658 7.25292 16.6518C7.3318 16.6452 7.37945 16.637 7.40834 16.6301C7.42208 16.6268 7.43052 16.624 7.43508 16.6224C7.43946 16.6208 7.44134 16.6198 7.44175 16.6196C7.51785 16.5801 7.5799 16.518 7.61943 16.4419C7.61965 16.4415 7.62061 16.4396 7.6222 16.4352C7.62386 16.4307 7.62662 16.4222 7.62991 16.4085C7.63684 16.3796 7.64506 16.332 7.65161 16.2531C7.66567 16.0837 7.66634 15.8573 7.66634 15.4873V15.3457C7.66634 14.9758 7.66567 14.7493 7.65161 14.5799C7.64506 14.501 7.63684 14.4534 7.62991 14.4245C7.62662 14.4108 7.62386 14.4023 7.6222 14.3978C7.62061 14.3934 7.61965 14.3915 7.61943 14.3911C7.5799 14.315 7.51785 14.2529 7.44175 14.2134C7.44134 14.2132 7.43946 14.2122 7.43508 14.2106C7.43052 14.209 7.42208 14.2062 7.40834 14.2029C7.37945 14.196 7.3318 14.1878 7.25292 14.1812C7.08358 14.1672 6.8571 14.1665 6.48718 14.1665H4.67884C4.30892 14.1665 4.08244 14.1672 3.9131 14.1812C3.83422 14.1878 3.78657 14.196 3.75768 14.2029C3.74394 14.2062 3.7355 14.209 3.73094 14.2106Z" fill="white"/>
</svg>
