<svg width="96" height="14" viewBox="0 0 96 14" fill="none" xmlns="http://www.w3.org/2000/svg">
<path d="M33.0439 2.47656H26.0205C24.3582 2.47657 23.1266 2.82509 22.3271 3.52344C21.5404 4.22182 21.1475 5.34645 21.1475 6.89551C21.1475 8.36813 21.4967 9.45984 22.1943 10.1709C22.8923 10.8693 23.9137 11.2509 25.2588 11.3145V6.01855H33.7861V13.8096H25.4297C23.1077 13.8095 21.2933 13.2316 19.9863 12.0762C18.6921 10.908 18.045 9.18097 18.0449 6.89551C18.045 4.62261 18.7047 2.90746 20.0244 1.75195C21.3568 0.58396 23.2857 5.28514e-05 25.8105 0H33.0439V2.47656ZM88.1445 0C90.6569 4.71607e-06 92.5797 0.583864 93.9121 1.75195C95.2445 2.90746 95.9111 4.62261 95.9111 6.89551C95.9111 9.18098 95.2444 10.908 93.9121 12.0762C92.5797 13.2317 90.6884 13.8096 88.2393 13.8096H84.585C82.1614 13.8096 80.2836 13.2315 78.9512 12.0762C77.6189 10.908 76.9522 9.18097 76.9521 6.89551C76.9522 4.62261 77.6188 2.90746 78.9512 1.75195C80.2835 0.584094 82.2058 7.83566e-05 84.7178 0H88.1445ZM11.8809 0.0957031C13.3907 0.0957214 14.5072 0.413075 15.2305 1.04785C15.9664 1.66996 16.3348 2.6094 16.335 3.86621C16.335 5.1233 15.9156 6.04478 15.0781 6.62891C15.6364 6.93361 16.0489 7.33985 16.3154 7.84766C16.5819 8.34285 16.7158 8.98429 16.7158 9.77148C16.7158 11.0539 16.3473 12.0321 15.6113 12.7051C14.888 13.3652 13.7714 13.6953 12.2617 13.6953L0.421875 13.7139V0.133789L11.8809 0.0957031ZM51.4385 0.0761719C53.9002 0.0761906 55.8102 0.654108 57.168 1.80957C58.5257 2.96508 59.2041 4.66078 59.2041 6.89551C59.204 9.13004 58.5255 10.825 57.168 11.9805C55.8102 13.136 53.9002 13.7138 51.4385 13.7139H43.1016V0.0957031H45.3477L51.4385 0.0761719ZM76.5605 13.7139H73.248L71.9541 10.8379H64.207L62.9121 13.7139H59.6006L65.7295 0.0957031H70.4307L76.5605 13.7139ZM28.1143 11.333H30.7412V8.49512H28.1143V11.333ZM80.1504 8.13281C80.3534 9.25021 80.8481 10.0634 81.6348 10.5713C82.4215 11.0791 83.538 11.333 84.9844 11.333H87.9355C89.3566 11.333 90.4545 11.0792 91.2285 10.5713C92.0151 10.0633 92.5099 9.25008 92.7129 8.13281H80.1504ZM3.46777 11.2568H11.8994C13.0541 11.2568 13.6318 10.7111 13.6318 9.61914C13.6318 8.55262 13.0541 8.01855 11.8994 8.01855H3.46777V11.2568ZM46.1465 11.2383H51.2285C52.8273 11.2383 54.0394 10.8887 54.8643 10.1904C55.689 9.49207 56.1015 8.39369 56.1016 6.89551C56.1015 5.38452 55.6891 4.28529 54.8643 3.59961C54.0394 2.90148 52.8271 2.55273 51.2285 2.55273H46.1465V11.2383ZM65.3105 8.3623H70.8496L68.2041 2.47656H67.957L65.3105 8.3623ZM84.9277 2.47656C83.5192 2.47657 82.4215 2.73039 81.6348 3.23828C80.8481 3.74618 80.3534 4.55258 80.1504 5.65723H92.7129C92.5099 4.55276 92.015 3.7462 91.2285 3.23828C90.4418 2.73045 89.3438 2.47661 87.9355 2.47656H84.9277ZM3.46777 5.58105H11.5195C12.674 5.58092 13.251 5.05968 13.251 4.01855C13.2507 3.02867 12.6737 2.53333 11.5195 2.5332H3.46777V5.58105Z" fill="#00F0FF"/>
</svg>
