<svg width="124" height="22" viewBox="0 0 124 22" fill="none" xmlns="http://www.w3.org/2000/svg">
<rect width="22" height="22" rx="4.125" fill="#00F0FF"/>
<path d="M61.0439 6.47656H54.0205C52.3582 6.47657 51.1266 6.82509 50.3271 7.52344C49.5404 8.22182 49.1475 9.34645 49.1475 10.8955C49.1475 12.3681 49.4967 13.4598 50.1943 14.1709C50.8923 14.8693 51.9137 15.2509 53.2588 15.3145V10.0186H61.7861V17.8096H53.4297C51.1077 17.8095 49.2933 17.2316 47.9863 16.0762C46.6921 14.908 46.045 13.181 46.0449 10.8955C46.045 8.62261 46.7047 6.90746 48.0244 5.75195C49.3568 4.58396 51.2857 4.00005 53.8105 4H61.0439V6.47656ZM116.145 4C118.657 4 120.58 4.58386 121.912 5.75195C123.244 6.90746 123.911 8.62261 123.911 10.8955C123.911 13.181 123.244 14.908 121.912 16.0762C120.58 17.2317 118.688 17.8096 116.239 17.8096H112.585C110.161 17.8096 108.284 17.2315 106.951 16.0762C105.619 14.908 104.952 13.181 104.952 10.8955C104.952 8.62261 105.619 6.90746 106.951 5.75195C108.283 4.58409 110.206 4.00008 112.718 4H116.145ZM39.8809 4.0957C41.3907 4.09572 42.5072 4.41307 43.2305 5.04785C43.9664 5.66996 44.3348 6.6094 44.335 7.86621C44.335 9.1233 43.9156 10.0448 43.0781 10.6289C43.6364 10.9336 44.0489 11.3398 44.3154 11.8477C44.5819 12.3428 44.7158 12.9843 44.7158 13.7715C44.7158 15.0539 44.3473 16.0321 43.6113 16.7051C42.888 17.3652 41.7714 17.6953 40.2617 17.6953L28.4219 17.7139V4.13379L39.8809 4.0957ZM79.4385 4.07617C81.9002 4.07619 83.8102 4.65411 85.168 5.80957C86.5257 6.96508 87.2041 8.66078 87.2041 10.8955C87.204 13.13 86.5255 14.825 85.168 15.9805C83.8102 17.136 81.9002 17.7138 79.4385 17.7139H71.1016V4.0957H73.3477L79.4385 4.07617ZM104.561 17.7139H101.248L99.9541 14.8379H92.207L90.9121 17.7139H87.6006L93.7295 4.0957H98.4307L104.561 17.7139ZM56.1143 15.333H58.7412V12.4951H56.1143V15.333ZM108.15 12.1328C108.353 13.2502 108.848 14.0634 109.635 14.5713C110.421 15.0791 111.538 15.333 112.984 15.333H115.936C117.357 15.333 118.455 15.0792 119.229 14.5713C120.015 14.0633 120.51 13.2501 120.713 12.1328H108.15ZM31.4678 15.2568H39.8994C41.0541 15.2568 41.6318 14.7111 41.6318 13.6191C41.6318 12.5526 41.0541 12.0186 39.8994 12.0186H31.4678V15.2568ZM74.1465 15.2383H79.2285C80.8273 15.2383 82.0394 14.8887 82.8643 14.1904C83.689 13.4921 84.1015 12.3937 84.1016 10.8955C84.1015 9.38452 83.6891 8.28529 82.8643 7.59961C82.0394 6.90148 80.8271 6.55273 79.2285 6.55273H74.1465V15.2383ZM93.3105 12.3623H98.8496L96.2041 6.47656H95.957L93.3105 12.3623ZM112.928 6.47656C111.519 6.47657 110.422 6.73039 109.635 7.23828C108.848 7.74618 108.353 8.55258 108.15 9.65723H120.713C120.51 8.55276 120.015 7.7462 119.229 7.23828C118.442 6.73045 117.344 6.47661 115.936 6.47656H112.928ZM31.4678 9.58105H39.5195C40.674 9.58092 41.251 9.05968 41.251 8.01855C41.2507 7.02867 40.6737 6.53333 39.5195 6.5332H31.4678V9.58105Z" fill="#00F0FF"/>
<path d="M12.8506 13.6973L9.70508 19.2363L7.88477 18.2012L11.0303 12.6621L12.8506 13.6973ZM13.0225 16.2988C13.6943 16.2988 14.2391 16.8434 14.2393 17.5156C14.2393 18.188 13.6944 18.7334 13.0225 18.7334C12.3506 18.7334 11.8057 18.188 11.8057 17.5156C11.8059 16.8434 12.3507 16.2989 13.0225 16.2988ZM17.7842 16.1562L15.9746 17.2109L12.7705 11.7061L14.5801 10.6514L17.7842 16.1562ZM6.09082 14.5996C6.76274 14.5996 7.30762 15.145 7.30762 15.8174C7.30756 16.4897 6.76271 17.0352 6.09082 17.0352C5.41898 17.0351 4.87408 16.4897 4.87402 15.8174C4.87402 15.145 5.41895 14.5997 6.09082 14.5996ZM9.28906 13.75H2.92285V11.6553H9.28906V13.75ZM17.9746 11.1455C18.6464 11.1457 19.1904 11.691 19.1904 12.3633C19.1902 13.0354 18.6463 13.5799 17.9746 13.5801C17.3028 13.5801 16.758 13.0355 16.7578 12.3633C16.7578 11.6909 17.3027 11.1455 17.9746 11.1455ZM9.19824 9.58789L7.38672 10.6377L4.19531 5.12598L6.00684 4.0752L9.19824 9.58789ZM4.02539 7.74805C4.69708 7.74816 5.24196 8.29271 5.24219 8.96484C5.24219 9.63718 4.69722 10.1825 4.02539 10.1826C3.35347 10.1826 2.80859 9.63724 2.80859 8.96484C2.80882 8.29264 3.35361 7.74805 4.02539 7.74805ZM19.1914 9.61621H12.8252V7.52148H19.1914V9.61621ZM14.1816 3.05176L10.9854 8.56152L9.17383 7.50879L12.3711 2L14.1816 3.05176ZM15.9648 4.26465C16.6367 4.26471 17.1816 4.81014 17.1816 5.48242C17.1816 6.15478 16.6367 6.70013 15.9648 6.7002C15.2929 6.7002 14.748 6.15482 14.748 5.48242C14.7481 4.8101 15.293 4.26465 15.9648 4.26465ZM9.00488 2.53809C9.67675 2.53815 10.2217 3.0835 10.2217 3.75586C10.2215 4.42809 9.67665 4.97259 9.00488 4.97266C8.33306 4.97266 7.78825 4.42812 7.78809 3.75586C7.78809 3.08346 8.33296 2.53809 9.00488 2.53809Z" fill="#001F29"/>
</svg>
