<svg width="70" height="20" viewBox="0 0 70 20" fill="none" xmlns="http://www.w3.org/2000/svg">
<path d="M6.22646 1.16699H3.76562L0.449642 17.0816C0.242521 18.0757 0.887985 18.8827 1.8863 18.8827H3.9478L7.34581 2.57441C7.50782 1.79688 7.00514 1.16699 6.22646 1.16699Z" fill="white"/>
<path d="M43.773 1.16699H41.3122L37.9962 17.0816C37.7891 18.0757 38.4345 18.8827 39.4328 18.8827H41.4943L44.8923 2.57441C45.0543 1.79688 44.5517 1.16699 43.773 1.16699Z" fill="white"/>
<path d="M34.2019 11.0238C34.6626 10.7532 35.1027 10.4136 35.5162 10.0101C35.9297 9.60657 36.3037 9.12923 36.6332 8.57807C36.9627 8.02692 37.2048 7.3921 37.3534 6.67855C37.5134 5.91087 37.5383 5.1924 37.4222 4.52806C37.306 3.86372 37.0476 3.28304 36.6421 2.78601C36.2365 2.28899 35.6846 1.89531 34.9814 1.60496C34.2782 1.31462 33.4254 1.16699 32.4271 1.16699H9.63576L9.31892 2.68759C9.15692 3.46512 9.66062 4.09009 10.4393 4.09009H30.8547C31.853 4.09009 32.5635 4.32138 32.9873 4.77903C33.4111 5.23669 33.5342 5.89119 33.3589 6.73268C33.16 7.68737 32.693 8.37139 31.958 8.78476C31.223 9.19812 30.3463 9.40481 29.328 9.40481H23.9571L22.3586 17.0767C22.1515 18.0708 22.797 18.8778 23.7953 18.8778H25.8268L27.1864 12.3525H29.2479L31.3075 18.8778H35.745L32.8925 11.6783C33.3067 11.511 33.7422 11.2896 34.2029 11.0189L34.2019 11.0238Z" fill="white"/>
<path d="M15.9406 6.31442H13.4847L11.2413 17.0816C11.0341 18.0757 11.6796 18.8827 12.6779 18.8827H14.7394L17.0649 7.72183C17.2269 6.94431 16.7242 6.31442 15.9406 6.31442Z" fill="white"/>
<path d="M55.0506 13.528L56.1722 8.14474L53.9033 4.67599L54.4688 1.96217H59.2208L59.4213 1H49.2744L54.2577 10L45.5239 19H49.6282" fill="#CA5FFF"/>
<path d="M60.0461 6.47204L58.9244 11.8553L61.1884 15.324L60.6229 18.0378H55.8709L55.6704 19H65.8173L60.834 10L69.5678 1H65.4734" fill="#6748FF"/>
<path d="M54.3389 1.9375L53.7493 4.76721L56.1234 8.13431L55.0314 13.3752L56.3224 12.059L57.2052 7.82207L54.8321 4.45017L55.1163 3.08591H58.9851L59.2244 1.9375H54.3389Z" fill="#CB96EB"/>
<path d="M60.7514 18.0625L61.341 15.2329L58.972 11.8659L60.0639 6.625L58.7729 7.94122L57.8901 12.1781L60.2582 15.55L59.9739 16.9143H56.1051L55.8659 18.0625H60.7514Z" fill="#CB96EB"/>
</svg>
