<svg width="348" height="99" viewBox="0 0 348 99" fill="none" xmlns="http://www.w3.org/2000/svg">
<g filter="url(#filter0_ddii_2163_3009)">
<path d="M13.1725 16.3707C11.9712 15.0944 12.8761 13 14.6289 13H329.5C332.814 13 335.5 15.6863 335.5 19V80C335.5 83.3137 332.814 86 329.5 86H24C20.6863 86 18 83.3137 18 80V47V30V21.5L13.1725 16.3707Z" fill="black" fill-opacity="0.6" shape-rendering="crispEdges"/>
<path d="M18.1533 21.4395L18.1123 21.3945L13.2842 16.2656C12.2099 15.1242 12.9605 13.2737 14.4795 13.1592L14.6289 13.1533H329.5C332.729 13.1533 335.347 15.7712 335.347 19V80C335.347 83.2288 332.729 85.8467 329.5 85.8467H24C20.7712 85.8467 18.1533 83.2288 18.1533 80V21.4395Z" stroke="url(#paint0_linear_2163_3009)" stroke-opacity="0.5" stroke-width="0.307523" shape-rendering="crispEdges"/>
</g>
<defs>
<filter id="filter0_ddii_2163_3009" x="0.201083" y="0.576083" width="347.723" height="97.8478" filterUnits="userSpaceOnUse" color-interpolation-filters="sRGB">
<feFlood flood-opacity="0" result="BackgroundImageFix"/>
<feColorMatrix in="SourceAlpha" type="matrix" values="0 0 0 0 0 0 0 0 0 0 0 0 0 0 0 0 0 0 127 0" result="hardAlpha"/>
<feOffset/>
<feGaussianBlur stdDeviation="6.21196"/>
<feComposite in2="hardAlpha" operator="out"/>
<feColorMatrix type="matrix" values="0 0 0 0 0.344507 0 0 0 0 0.295589 0 0 0 0 1 0 0 0 0.25 0"/>
<feBlend mode="normal" in2="BackgroundImageFix" result="effect1_dropShadow_2163_3009"/>
<feColorMatrix in="SourceAlpha" type="matrix" values="0 0 0 0 0 0 0 0 0 0 0 0 0 0 0 0 0 0 127 0" result="hardAlpha"/>
<feOffset dy="-1.23009"/>
<feGaussianBlur stdDeviation="0.615045"/>
<feComposite in2="hardAlpha" operator="out"/>
<feColorMatrix type="matrix" values="0 0 0 0 0.403467 0 0 0 0 0.204622 0 0 0 0 1 0 0 0 0.25 0"/>
<feBlend mode="normal" in2="effect1_dropShadow_2163_3009" result="effect2_dropShadow_2163_3009"/>
<feBlend mode="normal" in="SourceGraphic" in2="effect2_dropShadow_2163_3009" result="shape"/>
<feColorMatrix in="SourceAlpha" type="matrix" values="0 0 0 0 0 0 0 0 0 0 0 0 0 0 0 0 0 0 127 0" result="hardAlpha"/>
<feOffset/>
<feGaussianBlur stdDeviation="13.654"/>
<feComposite in2="hardAlpha" operator="arithmetic" k2="-1" k3="1"/>
<feColorMatrix type="matrix" values="0 0 0 0 0.344507 0 0 0 0 0.295589 0 0 0 0 1 0 0 0 0.38 0"/>
<feBlend mode="normal" in2="shape" result="effect3_innerShadow_2163_3009"/>
<feColorMatrix in="SourceAlpha" type="matrix" values="0 0 0 0 0 0 0 0 0 0 0 0 0 0 0 0 0 0 127 0" result="hardAlpha"/>
<feOffset dy="1.23009"/>
<feGaussianBlur stdDeviation="0.615045"/>
<feComposite in2="hardAlpha" operator="arithmetic" k2="-1" k3="1"/>
<feColorMatrix type="matrix" values="0 0 0 0 0.433479 0 0 0 0 0.403662 0 0 0 0 1 0 0 0 0.25 0"/>
<feBlend mode="normal" in2="effect3_innerShadow_2163_3009" result="effect4_innerShadow_2163_3009"/>
</filter>
<linearGradient id="paint0_linear_2163_3009" x1="174.5" y1="13" x2="174.5" y2="81" gradientUnits="userSpaceOnUse">
<stop stop-color="#E0DEFF"/>
<stop offset="1" stop-color="#E0DEFF"/>
</linearGradient>
</defs>
</svg>
