<svg width="14" height="14" viewBox="0 0 14 14" fill="none" xmlns="http://www.w3.org/2000/svg">
<g clip-path="url(#clip0_697_1024)">
<path d="M13.987 6.9974C13.987 10.8443 10.8687 13.9626 7.02182 13.9626C3.17509 13.9626 0.0566406 10.8443 0.0566406 6.9974C0.0566406 3.1506 3.17509 0.0322266 7.02182 0.0322266C10.8687 0.0322266 13.987 3.1506 13.987 6.9974Z" fill="#00F0FF"/>
<path d="M8.14258 8.45149L6.45703 11.4202L5.48145 10.8656L7.16699 7.8968L8.14258 8.45149ZM8.23438 9.84602C8.5943 9.84619 8.88569 10.1382 8.88574 10.4984C8.88574 10.8586 8.59434 11.1505 8.23438 11.1507C7.87427 11.1507 7.58203 10.8587 7.58203 10.4984C7.58209 10.1381 7.8743 9.84602 8.23438 9.84602ZM10.7861 9.76985L9.81641 10.3353L8.09961 7.38509L9.06934 6.81966L10.7861 9.76985ZM4.51953 8.93587C4.87964 8.93587 5.17188 9.22785 5.17188 9.58821C5.1718 9.94851 4.87959 10.2406 4.51953 10.2406C4.15959 10.2404 3.86824 9.94843 3.86816 9.58821C3.86816 9.22793 4.15954 8.936 4.51953 8.93587ZM6.2334 8.47981H2.82129V7.35774H6.2334V8.47981ZM10.8877 7.0843C11.2478 7.0843 11.54 7.37634 11.54 7.73665C11.54 8.09701 11.2478 8.38899 10.8877 8.38899C10.5278 8.38878 10.2363 8.09688 10.2363 7.73665C10.2364 7.37647 10.5278 7.08452 10.8877 7.0843ZM6.18457 6.24934L5.21387 6.81184L3.50293 3.85774L4.47461 3.29524L6.18457 6.24934ZM3.41211 5.26302C3.77221 5.26302 4.06445 5.55597 4.06445 5.91634C4.06419 6.27648 3.77205 6.56868 3.41211 6.56868C3.05219 6.56865 2.76003 6.27646 2.75977 5.91634C2.75977 5.55599 3.05203 5.26304 3.41211 5.26302ZM11.54 6.26497H8.12891V5.14192H11.54V6.26497ZM8.85547 2.74641L7.14258 5.69954L6.17188 5.13509L7.88477 2.18294L8.85547 2.74641ZM9.81152 3.3968C10.1713 3.39706 10.4628 3.68904 10.4629 4.04915C10.4629 4.40935 10.1714 4.70124 9.81152 4.70149C9.45142 4.70149 9.15918 4.40951 9.15918 4.04915C9.1593 3.68889 9.45149 3.3968 9.81152 3.3968ZM6.08105 2.47102C6.44101 2.47102 6.73316 2.76321 6.7334 3.12337C6.7334 3.48373 6.44116 3.77669 6.08105 3.77669C5.72105 3.77657 5.42969 3.48366 5.42969 3.12337C5.42992 2.76328 5.72119 2.47114 6.08105 2.47102Z" fill="#001F29"/>
</g>
<defs>
<clipPath id="clip0_697_1024">
<rect width="14" height="14" fill="white"/>
</clipPath>
</defs>
</svg>
