<svg width="14" height="14" viewBox="0 0 14 14" fill="none" xmlns="http://www.w3.org/2000/svg">
<g clip-path="url(#clip0_1578_4749)">
<path d="M13.9875 6.9974C13.9875 10.8443 10.8692 13.9626 7.0223 13.9626C3.17558 13.9626 0.0571289 10.8443 0.0571289 6.9974C0.0571289 3.1506 3.17558 0.0322266 7.0223 0.0322266C10.8692 0.0322266 13.9875 3.1506 13.9875 6.9974Z" fill="#1BA27A"/>
<path d="M10.2911 3.54443H3.6958V5.13667H6.19734V7.47697H7.78958V5.13667H10.2911V3.54443Z" fill="white"/>
<path d="M7.00865 7.72623C4.9393 7.72623 3.2616 7.39872 3.2616 6.99467C3.2616 6.59069 4.93923 6.26312 7.00865 6.26312C9.07801 6.26312 10.7556 6.59069 10.7556 6.99467C10.7556 7.39872 9.07801 7.72623 7.00865 7.72623ZM11.216 7.11663C11.216 6.59564 9.3323 6.17334 7.00865 6.17334C4.68507 6.17334 2.80127 6.59564 2.80127 7.11663C2.80127 7.57543 4.26194 7.95768 6.19749 8.04238V11.402H7.78959V8.0437C9.74005 7.96165 11.216 7.5778 11.216 7.11663Z" fill="white"/>
</g>
<defs>
<clipPath id="clip0_1578_4749">
<rect width="14" height="14" fill="white"/>
</clipPath>
</defs>
</svg>
