<svg width="20" height="18" viewBox="0 0 20 18" fill="none" xmlns="http://www.w3.org/2000/svg">
<path d="M11.9981 1.95312C8.11106 1.95312 5.29705 3.12013 4.30205 4.78113C4.04405 5.21113 3.99805 5.67712 3.99805 5.95312V17.9531C3.99805 18.2291 4.07605 18.6821 4.31905 19.1281C5.19605 20.7331 8.11106 21.9531 11.9981 21.9531C15.8841 21.9531 18.5921 20.8171 19.6301 19.2301C19.8541 18.8871 20.0041 18.3761 19.9981 17.9531V5.95312C19.9981 5.67712 19.9611 5.38713 19.8361 5.08313C19.0421 3.16513 15.8841 1.95312 11.9981 1.95312ZM11.9981 3.95312C13.7511 3.95312 15.3881 4.26314 16.5601 4.76514C17.5371 5.18414 17.9981 5.64313 17.9981 5.95312C17.9981 6.26312 17.5371 6.72211 16.5601 7.14111C15.3881 7.64311 13.7511 7.95312 11.9981 7.95312C10.2451 7.95312 8.60705 7.64311 7.43505 7.14111C6.45805 6.72211 5.99805 6.26312 5.99805 5.95312C5.99805 5.64313 6.45805 5.18414 7.43505 4.76514C8.60705 4.26314 10.2451 3.95312 11.9981 3.95312ZM5.99405 8.66113C7.47006 9.50513 9.57906 9.95312 11.9981 9.95312C14.4161 9.95312 16.5161 9.51512 17.9931 8.67212L17.9981 11.9531C17.9981 12.2631 17.5371 12.7221 16.5601 13.1411C15.3881 13.6431 13.7511 13.9531 11.9981 13.9531C10.2451 13.9531 8.60705 13.6431 7.43505 13.1411C6.45805 12.7221 5.99805 12.2631 5.99805 11.9531L5.99405 8.66113ZM5.99906 14.6711C7.42606 15.4451 9.57906 15.9531 11.9981 15.9531C14.4161 15.9531 16.4811 15.4821 17.9941 14.6721L17.9981 17.9531C17.9981 18.2631 17.5371 18.7221 16.5601 19.1411C15.3881 19.6431 13.7511 19.9531 11.9981 19.9531C10.2451 19.9531 8.60705 19.6431 7.43505 19.1411C6.45805 18.7221 5.99805 18.2631 5.99805 17.9531L5.99906 14.6711Z" stroke="#373949" stroke-width="2" stroke-linecap="round" stroke-linejoin="round"/>
</svg>
