<svg width="18" height="19" viewBox="0 0 18 19" fill="none" xmlns="http://www.w3.org/2000/svg">
<path d="M6 11.0001H12M1 14.8002V9.45222C1 8.91788 1 8.65057 1.06497 8.40193C1.12255 8.18159 1.21779 7.97307 1.3457 7.78464C1.49004 7.57201 1.69064 7.39569 2.09277 7.04383L6.89436 2.84244C7.63985 2.19014 8.01261 1.86397 8.43242 1.73982C8.80261 1.63035 9.19719 1.63035 9.56738 1.73982C9.98751 1.86406 10.3608 2.19054 11.1074 2.84383L15.9074 7.04383C16.3096 7.39569 16.5102 7.57201 16.6546 7.78464C16.7825 7.97307 16.877 8.18159 16.9346 8.40193C16.9995 8.65057 17 8.91789 17 9.45222V14.8037C17 15.9216 17 16.4811 16.7822 16.9086C16.5905 17.2849 16.2837 17.5906 15.9074 17.7823C15.48 18.0001 14.921 18.0001 13.8031 18.0001H4.19691C3.07899 18.0001 2.5192 18.0001 2.0918 17.7823C1.71547 17.5906 1.40973 17.2849 1.21799 16.9086C1 16.4807 1 15.9203 1 14.8002Z" stroke="#4D5066" stroke-width="2" stroke-linecap="round" stroke-linejoin="round"/>
</svg>
