<svg width="16" height="21" viewBox="0 0 16 21" fill="none" xmlns="http://www.w3.org/2000/svg">
<path d="M7.99807 0.953125C4.11106 0.953125 1.29705 2.12013 0.302049 3.78113C0.0440479 4.21113 -0.00195312 4.67712 -0.00195312 4.95312V16.9531C-0.00195312 17.2291 0.0760462 17.6821 0.319047 18.1281C1.19605 19.7331 4.11106 20.9531 7.99807 20.9531C11.8841 20.9531 14.5921 19.8171 15.6301 18.2301C15.8541 17.8871 16.0041 17.3761 15.9981 16.9531V4.95312C15.9981 4.67712 15.9611 4.38713 15.8361 4.08313C15.0421 2.16513 11.8841 0.953125 7.99807 0.953125ZM7.99807 2.95312C9.75107 2.95312 11.3881 3.26314 12.5601 3.76514C13.5371 4.18414 13.9981 4.64313 13.9981 4.95312C13.9981 5.26312 13.5371 5.72211 12.5601 6.14111C11.3881 6.64311 9.75107 6.95312 7.99807 6.95312C6.24506 6.95312 4.60705 6.64311 3.43505 6.14111C2.45805 5.72211 1.99805 5.26312 1.99805 4.95312C1.99805 4.64313 2.45805 4.18414 3.43505 3.76514C4.60705 3.26314 6.24506 2.95312 7.99807 2.95312ZM1.99405 7.66113C3.47006 8.50513 5.57906 8.95312 7.99807 8.95312C10.4161 8.95312 12.5161 8.51512 13.9931 7.67212L13.9981 10.9531C13.9981 11.2631 13.5371 11.7221 12.5601 12.1411C11.3881 12.6431 9.75107 12.9531 7.99807 12.9531C6.24506 12.9531 4.60705 12.6431 3.43505 12.1411C2.45805 11.7221 1.99805 11.2631 1.99805 10.9531L1.99405 7.66113ZM1.99906 13.6711C3.42606 14.4451 5.57906 14.9531 7.99807 14.9531C10.4161 14.9531 12.4811 14.4821 13.9941 13.6721L13.9981 16.9531C13.9981 17.2631 13.5371 17.7221 12.5601 18.1411C11.3881 18.6431 9.75107 18.9531 7.99807 18.9531C6.24506 18.9531 4.60705 18.6431 3.43505 18.1411C2.45805 17.7221 1.99805 17.2631 1.99805 16.9531L1.99906 13.6711Z" fill="#414356"/>
</svg>
