<svg width="11" height="10" viewBox="0 0 11 10" fill="none" xmlns="http://www.w3.org/2000/svg">
<path d="M3.85 8.88889H5.5V5.52333L3.3 3.58556L1.1 5.52333V8.88889H2.75V6.66667H3.85V8.88889ZM10.45 10H0.55C0.404131 10 0.264236 9.94147 0.161091 9.83728C0.0579462 9.73309 3.29274e-09 9.59179 3.29274e-09 9.44444V5.27056C-8.59563e-06 5.19117 0.0168249 5.11271 0.0493666 5.04045C0.0819083 4.96819 0.129403 4.90382 0.18865 4.85167L2.2 3.08V0.555556C2.2 0.408213 2.25795 0.266905 2.36109 0.162718C2.46424 0.0585316 2.60413 0 2.75 0H10.45C10.5959 0 10.7358 0.0585316 10.8389 0.162718C10.9421 0.266905 11 0.408213 11 0.555556V9.44444C11 9.59179 10.9421 9.73309 10.8389 9.83728C10.7358 9.94147 10.5959 10 10.45 10ZM7.7 4.44444V5.55556H8.8V4.44444H7.7ZM7.7 6.66667V7.77778H8.8V6.66667H7.7ZM7.7 2.22222V3.33333H8.8V2.22222H7.7ZM5.5 2.22222V3.33333H6.6V2.22222H5.5Z" fill="#7645D0"/>
</svg>
