<svg width="23" height="25" viewBox="0 0 23 25" fill="none" xmlns="http://www.w3.org/2000/svg">
<g clip-path="url(#clip0_1479_6847)">
<path d="M9.62895 2.62492C9.4829 4.38742 8.81245 7.68492 6.02945 10.8624C6.10956 9.9614 5.96163 9.05371 5.60165 8.23742C5.56985 8.16681 5.51843 8.10884 5.45466 8.07172C5.3909 8.03461 5.31801 8.02021 5.24631 8.03057C5.17461 8.04094 5.10772 8.07554 5.05509 8.12948C5.00247 8.18342 4.96677 8.25397 4.95305 8.33117C4.82425 9.04992 4.49305 10.1637 3.6593 11.6949C2.0493 14.6587 2.25285 22.9224 11.3126 22.9224C20.3722 22.9224 20.9806 14.3087 19.6938 10.8124C19.0728 9.09404 18.0804 7.56341 16.8004 6.34992C16.7425 6.29652 16.6719 6.26193 16.5968 6.25013C16.5217 6.23833 16.445 6.24979 16.3756 6.2832C16.3062 6.31662 16.2469 6.37062 16.2044 6.43903C16.162 6.50743 16.1382 6.58746 16.1357 6.66992C16.115 7.41242 15.9701 8.45992 15.3928 9.16992C15.3778 7.88117 14.536 4.08242 10.8457 1.91992C10.7257 1.84861 10.5912 1.81086 10.4545 1.81007C10.3177 1.80928 10.1829 1.84549 10.0622 1.91542C9.94153 1.98535 9.83874 2.08681 9.76311 2.21066C9.68747 2.33452 9.64137 2.47688 9.62895 2.62492Z" fill="#FF5D50"/>
<path d="M15.7736 16.5623C15.6804 15.4635 14.4108 12.496 10.9988 10.546C10.9451 10.5152 10.8846 10.501 10.824 10.5051C10.7634 10.5091 10.705 10.5311 10.6551 10.5688C10.6053 10.6065 10.5659 10.6583 10.5413 10.7187C10.5168 10.779 10.5079 10.8456 10.5158 10.911C10.6549 12.0548 10.8067 14.3423 9.97529 15.421C10.065 14.4348 9.56819 13.6185 9.15074 13.1198C9.10888 13.0686 9.05447 13.0315 8.99389 13.0128C8.93332 12.9941 8.86909 12.9945 8.80873 13.0141C8.74838 13.0336 8.69441 13.0715 8.65314 13.1232C8.61187 13.1749 8.58502 13.2383 8.57574 13.306C8.43582 14.1501 8.15771 14.96 7.75464 15.6973C6.80819 17.5048 5.79964 20.3035 10.5526 22.891C10.7975 22.9048 11.0494 22.9123 11.3104 22.9123C11.5715 22.9123 11.8061 22.9048 12.0441 22.891C15.6022 21.4398 15.9438 18.5473 15.7736 16.5623Z" fill="#FFDF99"/>
</g>
<defs>
<clipPath id="clip0_1479_6847">
<rect width="23" height="25" fill="white"/>
</clipPath>
</defs>
</svg>
