<svg width="13" height="13" viewBox="0 0 13 13" fill="none" xmlns="http://www.w3.org/2000/svg">
<path d="M9.92955 2.99722V3.88084C9.59712 3.75374 9.25124 3.66574 8.89804 3.6193V2.48513H9.42357C9.70222 2.49491 9.92466 2.71979 9.92955 2.99722ZM7.5231 1.0002H2.30934C1.86325 0.99042 1.49415 1.34485 1.48438 1.79094V11.9997H6.01861C3.84682 10.78 3.07441 8.03132 4.29414 5.85953C5.08977 4.44304 6.58692 3.56308 8.21118 3.55819H8.32484V1.8386C8.33951 1.39129 7.98997 1.01609 7.54143 1.0002H7.5231ZM3.98615 4.66792H2.52933C2.38511 4.67403 2.26412 4.56404 2.25434 4.42104V4.39415C2.23479 4.24872 2.33623 4.1155 2.48044 4.09595C2.48411 4.09595 2.48777 4.09472 2.49144 4.09472H3.95926C4.10103 4.08495 4.22447 4.1925 4.23425 4.33427V4.36849C4.24769 4.51026 4.14381 4.63614 4.00204 4.64959H3.99715L3.98615 4.66792ZM5.80473 2.44113H2.52933C2.38756 2.44846 2.26534 2.33969 2.25801 2.19792V2.19425C2.23967 2.05126 2.33867 1.92049 2.48166 1.89849H5.80596C5.95017 1.89116 6.07361 2.00115 6.08094 2.14537V2.17348C6.08828 2.31769 5.97828 2.44113 5.83407 2.44846H5.80473V2.44113Z" fill="#7645D0"/>
<path d="M8.49578 12.0001H7.89081C6.7933 11.9072 5.78013 11.3707 5.08594 10.5152C5.19593 10.0752 5.6078 9.03022 6.26777 8.83834C6.70775 8.70146 7.22962 8.94833 7.8077 9.5252C8.05947 9.79652 8.43712 9.9114 8.79766 9.82707C9.37452 9.69019 9.78761 9.00211 10.0895 7.79216C10.0895 7.79216 10.2545 7.29719 10.6114 7.24219C10.8313 7.2153 11.2982 7.29719 12.0963 8.31403C12.0132 10.2829 10.461 11.8705 8.49578 12.0001ZM6.70531 6.63844C6.70531 6.86576 6.88986 7.05031 7.11718 7.05031C7.3445 7.05031 7.52905 6.86576 7.52905 6.63844C7.52905 6.41112 7.3445 6.22657 7.11718 6.22657C6.88986 6.22535 6.70531 6.40989 6.70531 6.63844Z" fill="#7645D0"/>
<path d="M8.21106 4.09379C6.0246 4.08401 4.2439 5.84882 4.23413 8.0365V8.04017C4.22679 8.69158 4.38812 9.33322 4.70099 9.90275C4.91732 9.35277 5.36096 8.50092 6.13093 8.28093C6.76279 8.08905 7.47776 8.36282 8.22817 9.1059C8.25505 9.1059 8.44816 9.32589 8.69503 9.27089C8.86003 9.21956 9.2719 8.96901 9.60188 7.62096C9.62877 7.56963 9.87687 6.796 10.5637 6.68967C11.0306 6.60412 11.5537 6.851 12.1037 7.42908C11.7773 5.52617 10.1409 4.12557 8.21106 4.09379ZM7.11722 7.60019C6.58435 7.60019 6.15171 7.16754 6.15171 6.63467C6.15171 6.10181 6.58435 5.66916 7.11722 5.66916C7.65008 5.66916 8.08273 6.10181 8.08273 6.63467V6.63834C8.07662 7.16754 7.64764 7.5953 7.11722 7.60019Z" fill="#7645D0"/>
</svg>
