<svg width="13" height="13" viewBox="0 0 13 13" fill="none" xmlns="http://www.w3.org/2000/svg">
<path d="M11.7357 7.71627C11.9298 7.18063 12.0357 6.60268 12.0357 6C12.0357 5.54151 11.9744 5.09733 11.8596 4.67521L11.8522 4.67719C11.8485 4.66359 11.8476 4.64941 11.8495 4.63547C11.8514 4.62152 11.856 4.60808 11.863 4.59591C11.8701 4.58373 11.8795 4.57307 11.8907 4.56453C11.9018 4.55598 11.9146 4.54973 11.9282 4.54611L12.653 4.35342C12.677 4.34705 12.7024 4.34918 12.7249 4.35944C12.7475 4.3697 12.7658 4.38745 12.7767 4.40968L12.7863 4.40707C12.9256 4.91433 13 5.44848 13 6C13 6.75194 12.8617 7.47158 12.6091 8.13485C12.8124 8.36036 12.9362 8.65903 12.9362 8.98661C12.9362 9.68929 12.3666 10.2589 11.6639 10.2589C11.535 10.259 11.4068 10.2396 11.2837 10.2012C10.1949 11.3113 8.67786 12 7 12C3.68629 12 1 9.31371 1 6C1 5.26315 1.13283 4.55733 1.37584 3.90517C1.14549 3.67282 1.00321 3.35302 1.00321 3C1.00321 2.28992 1.57885 1.71429 2.28893 1.71429C2.44197 1.71429 2.58875 1.74102 2.72488 1.79008C3.81314 0.685085 5.32656 0 7 0C7.61611 0 8.21054 0.0928661 8.77005 0.265366C8.9851 0.099 9.25493 0 9.54786 0C10.2505 0 10.8202 0.569638 10.8202 1.27232C10.8202 1.975 10.2505 2.54464 9.54786 2.54464C8.84517 2.54464 8.27554 1.975 8.27554 1.27232C8.27554 1.22397 8.27823 1.17627 8.28348 1.12931C7.87372 1.02163 7.44356 0.964286 7 0.964286C5.61182 0.964286 4.35483 1.52598 3.44393 2.4345C3.52763 2.60517 3.57464 2.7971 3.57464 3C3.57464 3.71008 2.999 4.28571 2.28893 4.28571C2.28049 4.28571 2.27208 4.28563 2.2637 4.28547C2.06993 4.82062 1.96429 5.39798 1.96429 6C1.96429 8.78115 4.21885 11.0357 7 11.0357C8.37968 11.0357 9.62977 10.4809 10.5393 9.58215C10.445 9.40446 10.3916 9.20178 10.3916 8.98661C10.3916 8.28392 10.9612 7.71429 11.6639 7.71429C11.688 7.71429 11.7119 7.71496 11.7357 7.71627Z" fill="#7645D0"/>
<path d="M6.94308 8.61175C8.37433 8.61175 9.5346 7.45148 9.5346 6.02023C9.5346 4.58897 8.37433 3.42871 6.94308 3.42871C5.51183 3.42871 4.35156 4.58897 4.35156 6.02023C4.35156 7.45148 5.51183 8.61175 6.94308 8.61175Z" fill="#7645D0"/>
</svg>
