<svg width="10" height="10" viewBox="0 0 10 10" fill="none" xmlns="http://www.w3.org/2000/svg">
<path d="M2.62897 6C2.48031 6 2.43073 5.93057 2.42083 5.76856V3.4542C2.42083 3.2806 2.29199 3.18803 2.14336 3.18803L1.23161 3.22276C0.993745 3.22276 0.924379 2.86403 1.09284 2.66733L3.30286 0.0867936C3.41188 -0.0289312 3.58033 -0.0289312 3.67945 0.0867936L5.88946 2.66732C6.05795 2.86402 6.03813 3.22275 5.80027 3.22275H4.80923C4.66059 3.22275 4.61102 3.28059 4.61102 3.45419V5.76855C4.61102 5.94215 4.46235 5.99999 4.31372 5.99999L2.62897 6Z" fill="url(#paint0_linear_1558_3866)"/>
<path d="M6.62897 10C6.48031 10 6.43073 9.93057 6.42083 9.76856V7.4542C6.42083 7.2806 6.29199 7.18803 6.14336 7.18803L5.23161 7.22276C4.99375 7.22276 4.92438 6.86403 5.09284 6.66733L7.30286 4.08679C7.41188 3.97107 7.58033 3.97107 7.67945 4.08679L9.88946 6.66732C10.058 6.86402 10.0381 7.22275 9.80027 7.22275H8.80923C8.66059 7.22275 8.61102 7.28059 8.61102 7.45419V9.76855C8.61102 9.94215 8.46235 9.99999 8.31372 9.99999L6.62897 10Z" fill="url(#paint1_linear_1558_3866)"/>
<defs>
<linearGradient id="paint0_linear_1558_3866" x1="1" y1="5" x2="10" y2="5" gradientUnits="userSpaceOnUse">
<stop stop-color="#FFDF99"/>
<stop offset="1" stop-color="#FF5D50"/>
</linearGradient>
<linearGradient id="paint1_linear_1558_3866" x1="1" y1="5" x2="10" y2="5" gradientUnits="userSpaceOnUse">
<stop stop-color="#FFDF99"/>
<stop offset="1" stop-color="#FF5D50"/>
</linearGradient>
</defs>
</svg>
