<svg width="12" height="10" viewBox="0 0 12 10" fill="none" xmlns="http://www.w3.org/2000/svg">
<path d="M0.531873 9.97638C0.50672 9.97638 0.481566 9.97638 0.456413 9.96779C0.17134 9.92484 -0.0298876 9.65856 0.00365034 9.36652C0.26357 6.86695 1.12717 5.02019 2.56092 3.86918C3.59221 3.03599 4.90019 2.57215 6.44294 2.48626L6.76155 2.46908V0.691032C6.76155 -0.0133139 7.39039 -0.167926 7.72577 0.175657L11.6413 4.25571C12.136 4.77109 12.1109 5.30364 11.6162 5.81902L7.80123 9.796C7.39877 10.2083 6.76155 9.9592 6.76155 9.37511V7.46822H6.36748C4.93373 7.46822 2.32615 7.76026 0.959482 9.72728C0.875637 9.89048 0.707947 9.97638 0.531873 9.97638Z" fill="#7645D0"/>
</svg>
