<svg width="18" height="18" viewBox="0 0 18 18" fill="none" xmlns="http://www.w3.org/2000/svg">
<g clip-path="url(#clip0_1479_6713)">
<path fill-rule="evenodd" clip-rule="evenodd" d="M1.5 9.75C1.5 11.4069 2.84314 12.75 4.5 12.75H4.64751C5.0228 12.75 5.38446 12.8907 5.6611 13.1443L7.85796 15.1581C8.27331 15.5388 8.81628 15.75 9.37973 15.75C10.3196 15.75 11.212 15.1512 11.4451 14.1602C11.6928 13.107 12 11.3311 12 9C12 6.66894 11.6928 4.89303 11.4451 3.8398C11.212 2.84879 10.3196 2.25 9.37973 2.25C8.81628 2.25 8.27331 2.46121 7.85796 2.84195L5.6611 4.85573C5.38446 5.10932 5.0228 5.25 4.64751 5.25H4.5C2.84314 5.25 1.5 6.59315 1.5 8.25V9.75ZM4.5 11.25C3.67157 11.25 3 10.5784 3 9.75V8.25C3 7.42157 3.67157 6.75 4.5 6.75H4.64751C5.39809 6.75 6.1214 6.46864 6.67469 5.96146L8.87155 3.94768C9.01025 3.82053 9.19157 3.75 9.37973 3.75C9.70317 3.75 9.9288 3.94452 9.98493 4.18321C10.2101 5.14045 10.5 6.80042 10.5 9C10.5 11.1996 10.2101 12.8596 9.98493 13.8168C9.9288 14.0555 9.70317 14.25 9.37973 14.25C9.19157 14.25 9.01025 14.1795 8.87155 14.0523L6.67469 12.0385C6.1214 11.5314 5.39809 11.25 4.64751 11.25H4.5Z" fill="white"/>
<path d="M15.4292 4.57205C15.8037 4.3949 16.2508 4.55482 16.4279 4.92924C16.9835 6.10343 17.2484 7.56326 17.25 8.99164C17.2516 10.4201 16.9898 11.8859 16.4277 13.0714C16.2502 13.4456 15.8029 13.6051 15.4286 13.4277C15.0544 13.2502 14.8949 12.8029 15.0723 12.4286C15.5161 11.4929 15.7514 10.2593 15.75 8.99328C15.7486 7.72724 15.5106 6.49768 15.072 5.57076C14.8949 5.19634 15.0548 4.7492 15.4292 4.57205Z" fill="white"/>
<path d="M13.1646 11.9208C12.7941 11.7356 12.6439 11.2851 12.8292 10.9146C13.4736 9.62574 13.4736 8.37426 12.8292 7.08541C12.6439 6.71493 12.7941 6.26442 13.1646 6.07918C13.5351 5.89394 13.9856 6.04411 14.1708 6.41459C15.0264 8.12573 15.0264 9.87426 14.1708 11.5854C13.9856 11.9559 13.5351 12.1061 13.1646 11.9208Z" fill="white"/>
</g>
<defs>
<clipPath id="clip0_1479_6713">
<rect width="18" height="18" fill="white"/>
</clipPath>
</defs>
</svg>
