<svg width="78" height="78" viewBox="0 0 78 78" fill="none" xmlns="http://www.w3.org/2000/svg">
<g filter="url(#filter0_d_1578_4737)">
<circle cx="39" cy="39" r="35" fill="url(#paint0_linear_1578_4737)"/>
</g>
<path d="M52.9982 50.4627C53.0354 52.004 52.5334 53.5101 51.579 54.7209C51.1858 55.2673 50.6692 55.7132 50.0713 56.0224C49.4733 56.3315 48.8108 56.4952 48.1377 56.5H28.6955C28.0239 56.4944 27.3631 56.3304 26.7668 56.0212C26.1705 55.7121 25.6556 55.2666 25.264 54.7209C24.3075 53.5106 23.8023 52.005 23.835 50.4627C23.8269 49.2317 23.8918 48.0013 24.0294 46.778C24.1634 45.6017 24.4042 44.44 24.7488 43.3073C25.0539 42.2683 25.5021 41.2769 26.0806 40.3615C26.6226 39.5245 27.3556 38.8281 28.2192 38.3297C29.1547 37.7981 30.2152 37.5262 31.2911 37.5422C32.222 38.482 33.3328 39.2247 34.557 39.7258C35.7813 40.2269 37.0939 40.4762 38.4166 40.4588C39.7409 40.4775 41.0554 40.2288 42.2815 39.7277C43.5075 39.2266 44.6198 38.4832 45.5519 37.5422C46.6282 37.5219 47.6899 37.794 48.6238 38.3297C49.4852 38.8311 50.2175 39.5269 50.7624 40.3615C51.3433 41.286 51.7916 42.2874 52.0942 43.3365C52.438 44.4594 52.6788 45.6114 52.8135 46.778C52.9429 48.0019 53.0045 49.232 52.9982 50.4627ZM44.5992 24.0675C45.4266 24.8682 46.0812 25.8299 46.5225 26.8934C46.9639 27.9568 47.1828 29.0994 47.1656 30.2507C47.1828 31.402 46.9639 32.5446 46.5225 33.608C46.0812 34.6715 45.4266 35.6332 44.5992 36.4339C43.7986 37.2613 42.837 37.9159 41.7736 38.3574C40.7103 38.7988 39.5678 39.0177 38.4166 39.0005C37.2654 39.0177 36.1229 38.7988 35.0596 38.3574C33.9963 37.9159 33.0346 37.2613 32.234 36.4339C31.4066 35.6332 30.7521 34.6715 30.3107 33.608C29.8693 32.5446 29.6505 31.402 29.6676 30.2507C29.6505 29.0994 29.8693 27.9568 30.3107 26.8934C30.7521 25.8299 31.4066 24.8682 32.234 24.0675C33.0346 23.2401 33.9963 22.5855 35.0596 22.144C36.1229 21.7026 37.2654 21.4837 38.4166 21.5009C39.5678 21.4837 40.7103 21.7026 41.7736 22.144C42.837 22.5855 43.7986 23.2401 44.5992 24.0675Z" fill="#0D0D16"/>
<defs>
<filter id="filter0_d_1578_4737" x="0" y="0" width="78" height="78" filterUnits="userSpaceOnUse" color-interpolation-filters="sRGB">
<feFlood flood-opacity="0" result="BackgroundImageFix"/>
<feColorMatrix in="SourceAlpha" type="matrix" values="0 0 0 0 0 0 0 0 0 0 0 0 0 0 0 0 0 0 127 0" result="hardAlpha"/>
<feOffset/>
<feGaussianBlur stdDeviation="2"/>
<feComposite in2="hardAlpha" operator="out"/>
<feColorMatrix type="matrix" values="0 0 0 0 0.790833 0 0 0 0 0.3725 0 0 0 0 1 0 0 0 0.18 0"/>
<feBlend mode="normal" in2="BackgroundImageFix" result="effect1_dropShadow_1578_4737"/>
<feBlend mode="normal" in="SourceGraphic" in2="effect1_dropShadow_1578_4737" result="shape"/>
</filter>
<linearGradient id="paint0_linear_1578_4737" x1="-3.30216" y1="74" x2="80.0768" y2="70.1489" gradientUnits="userSpaceOnUse">
<stop stop-color="#CA5FFF"/>
<stop offset="1" stop-color="#6748FF"/>
</linearGradient>
</defs>
</svg>
