<svg width="78" height="78" viewBox="0 0 78 78" fill="none" xmlns="http://www.w3.org/2000/svg">
<g filter="url(#filter0_d_741_117)">
<circle cx="39" cy="39" r="35" fill="#00F0FF"/>
</g>
<path d="M44.1807 46.4629L35.9258 61L31.1475 58.2832L39.4023 43.7461L44.1807 46.4629ZM44.6309 53.29C46.3944 53.29 47.8242 54.7215 47.8242 56.4863C47.824 58.2509 46.3942 59.6816 44.6309 59.6816C42.8676 59.6815 41.4377 58.2508 41.4375 56.4863C41.4375 54.7216 42.8675 53.2902 44.6309 53.29ZM57.1279 52.917L52.3799 55.6846L43.9707 41.2363L48.7197 38.4688L57.1279 52.917ZM26.4395 48.832C28.2029 48.832 29.6328 50.2626 29.6328 52.0273C29.6328 53.7921 28.203 55.2227 26.4395 55.2227C24.676 55.2225 23.2461 53.792 23.2461 52.0273C23.2461 50.2627 24.6761 48.8322 26.4395 48.832ZM34.832 46.6025H18.124V41.1035H34.832V46.6025ZM57.6279 39.7656C59.3914 39.7656 60.8212 41.1962 60.8213 42.9609C60.8213 44.7257 59.3914 46.1562 57.6279 46.1562C55.8645 46.1561 54.4355 44.7256 54.4355 42.9609C54.4356 41.1963 55.8646 39.7658 57.6279 39.7656ZM34.5938 35.6777L29.8389 38.4336L21.4639 23.9658L26.2188 21.21L34.5938 35.6777ZM21.0166 30.8486C22.7801 30.8486 24.21 32.2792 24.21 34.0439C24.2098 35.8086 22.78 37.2393 21.0166 37.2393C19.2534 37.239 17.8244 35.8084 17.8242 34.0439C17.8242 32.2793 19.2533 30.8489 21.0166 30.8486ZM60.8223 35.7529H44.1133V30.2539H60.8223V35.7529ZM47.6738 18.5244L39.2832 32.9834L34.5312 30.2217L42.9219 15.7627L47.6738 18.5244ZM52.3535 21.708C54.117 21.7081 55.5469 23.1386 55.5469 24.9033C55.5467 26.6679 54.1169 28.0985 52.3535 28.0986C50.5901 28.0986 49.1603 26.668 49.1602 24.9033C49.1602 23.1385 50.59 21.708 52.3535 21.708ZM34.0869 17.1748C35.8502 17.175 37.2792 18.6056 37.2793 20.3701C37.2793 22.1348 35.8502 23.5652 34.0869 23.5654C32.3234 23.5654 30.8936 22.1349 30.8936 20.3701C30.8937 18.6054 32.3235 17.1748 34.0869 17.1748Z" fill="#001F29"/>
<defs>
<filter id="filter0_d_741_117" x="0" y="0" width="78" height="78" filterUnits="userSpaceOnUse" color-interpolation-filters="sRGB">
<feFlood flood-opacity="0" result="BackgroundImageFix"/>
<feColorMatrix in="SourceAlpha" type="matrix" values="0 0 0 0 0 0 0 0 0 0 0 0 0 0 0 0 0 0 127 0" result="hardAlpha"/>
<feOffset/>
<feGaussianBlur stdDeviation="2"/>
<feComposite in2="hardAlpha" operator="out"/>
<feColorMatrix type="matrix" values="0 0 0 0 0.790833 0 0 0 0 0.3725 0 0 0 0 1 0 0 0 0.18 0"/>
<feBlend mode="normal" in2="BackgroundImageFix" result="effect1_dropShadow_741_117"/>
<feBlend mode="normal" in="SourceGraphic" in2="effect1_dropShadow_741_117" result="shape"/>
</filter>
</defs>
</svg>
